classDiagram
    IUnknown <|-- ID3D12Object
    ID3D12Object <|-- ID3D12DeviceChild
    ID3D12DeviceChild <|-- ID3D12CommandList
    ID3D12CommandList <|-- ID3D12GraphicsCommandList
    ID3D12GraphicsCommandList <|-- ID3D12GraphicsCommandList2
    ID3D12GraphicsCommandList2 <|-- ID3D12GraphicsCommandList3
    ID3D12GraphicsCommandList3 <|-- ID3D12GraphicsCommandList4
    ID3D12GraphicsCommandList4 <|-- ID3D12GraphicsCommandList5
    ID3D12GraphicsCommandList5 <|-- ID3D12GraphicsCommandList6
    ID3D12GraphicsCommandList6 <|-- ID3D12GraphicsCommandList7
